<svg width="800" height="540" viewBox="0 0 800 540" fill="none" xmlns="http://www.w3.org/2000/svg">
  <style>
    /* Keyframe Animations */
    .twinkle-star { animation: starPulse 2.4s ease-in-out infinite alternate; transform-origin: center; transform-box: fill-box; }
    .star-del-1 { animation-delay: 0.6s; }
    .star-del-2 { animation-delay: 1.2s; }
    .star-del-3 { animation-delay: 1.8s; }
    
    .float-slow { animation: floatSlow 5s ease-in-out infinite alternate; transform-origin: center; transform-box: fill-box; }
    .float-delay-1 { animation-delay: 1s; }
    .float-delay-2 { animation-delay: 2s; }
    
    .screen-glow { animation: screenPulse 4s ease-in-out infinite alternate; }
    .steam-anim { animation: steamRise 3s ease-out infinite; opacity: 0; }
    .steam-del { animation-delay: 1.5s; }
    .cursor-blink { animation: blinkCursor 1s step-end infinite; }
    .pulse-halo { animation: haloPulse 3s ease-in-out infinite alternate; }

    @keyframes starPulse {
      0% { opacity: 0.25; transform: scale(0.85); }
      100% { opacity: 1; transform: scale(1.2); }
    }
    @keyframes floatSlow {
      0% { transform: translateY(0); }
      100% { transform: translateY(-10px); }
    }
    @keyframes screenPulse {
      0% { opacity: 0.85; filter: drop-shadow(0 0 15px rgba(99, 102, 241, 0.3)); }
      100% { opacity: 1; filter: drop-shadow(0 0 28px rgba(6, 182, 212, 0.5)); }
    }
    @keyframes steamRise {
      0% { transform: translateY(0) scaleX(0.8); opacity: 0; }
      40% { opacity: 0.6; }
      100% { transform: translateY(-16px) scaleX(1.3); opacity: 0; }
    }
    @keyframes blinkCursor {
      0%, 50% { opacity: 1; }
      51%, 100% { opacity: 0; }
    }
    @keyframes haloPulse {
      0% { opacity: 0.35; transform: scale(0.96); }
      100% { opacity: 0.7; transform: scale(1.04); }
    }
  </style>

  <!-- Ambient Backdrop & Cybernetic Gradient Ring -->
  <g class="pulse-halo">
    <ellipse cx="440" cy="270" rx="340" ry="240" fill="url(#ambient_halo)" opacity="0.45"/>
    <circle cx="660" cy="140" r="160" fill="url(#cyan_halo)" opacity="0.25"/>
  </g>

  <!-- Perspective Isometric Grid Floor (Subtle Tech Atmosphere) -->
  <g opacity="0.18" stroke="#38bdf8" stroke-width="1">
    <line x1="80" y1="460" x2="720" y2="460"/>
    <line x1="120" y1="490" x2="680" y2="490"/>
    <line x1="160" y1="520" x2="640" y2="520"/>
    <line x1="160" y1="440" x2="280" y2="530"/>
    <line x1="320" y1="440" x2="400" y2="530"/>
    <line x1="480" y1="440" x2="480" y2="530"/>
    <line x1="640" y1="440" x2="560" y2="530"/>
  </g>

  <!-- Celestial Twinkling Stars & Crosses -->
  <!-- Star 1 -->
  <path class="twinkle-star" d="M120 70 L122 76 L128 78 L122 80 L120 86 L118 80 L112 78 L118 76 Z" fill="#67e8f9"/>
  <!-- Star 2 -->
  <path class="twinkle-star star-del-1" d="M680 60 L681.5 66 L688 67.5 L681.5 69 L680 75 L678.5 69 L672 67.5 L678.5 66 Z" fill="#a5b4fc"/>
  <!-- Star 3 -->
  <path class="twinkle-star star-del-2" d="M740 180 L741 184 L745 185 L741 186 L740 190 L739 186 L735 185 L739 184 Z" fill="#fde047"/>
  <!-- Star 4 -->
  <path class="twinkle-star star-del-3" d="M220 50 L221 54 L225 55 L221 56 L220 60 L219 56 L215 55 L219 54 Z" fill="#34d399"/>
  <!-- Star 5 -->
  <path class="twinkle-star star-del-1" d="M90 200 L91.5 204 L96 205.5 L91.5 207 L90 211 L88.5 207 L84 205.5 L88.5 204 Z" fill="#c084fc"/>
  
  <!-- Ambient Circular Starlets -->
  <circle cx="160" cy="130" r="2.5" fill="#f8fafc" opacity="0.7"/>
  <circle cx="300" cy="45" r="2" fill="#93c5fd" opacity="0.6"/>
  <circle cx="610" cy="80" r="3" fill="#67e8f9" opacity="0.8"/>
  <circle cx="760" cy="270" r="2.5" fill="#c084fc" opacity="0.6"/>
  <circle cx="80" cy="310" r="2" fill="#a5b4fc" opacity="0.5"/>

  <!-- Holographic Floating Tech Badges -->
  <!-- Badge 1: ASP.NET Core -->
  <g class="float-slow" transform="translate(70, 110)">
    <rect width="130" height="34" rx="17" fill="#0f172a" stroke="#6366f1" stroke-width="1.5" opacity="0.9" filter="drop-shadow(0 8px 16px rgba(0,0,0,0.5))"/>
    <circle cx="20" cy="17" r="10" fill="#4f46e5"/>
    <path d="M16 20 L24 14 M16 14 L24 20" stroke="#ffffff" stroke-width="1.5" stroke-linecap="round"/>
    <text x="36" y="21" fill="#f8fafc" font-family="'Plus Jakarta Sans', sans-serif" font-size="11" font-weight="700">.NET Core C#</text>
  </g>

  <!-- Badge 2: SQL Server Core -->
  <g class="float-slow float-delay-1" transform="translate(620, 100)">
    <rect width="126" height="34" rx="17" fill="#0f172a" stroke="#06b6d4" stroke-width="1.5" opacity="0.9" filter="drop-shadow(0 8px 16px rgba(0,0,0,0.5))"/>
    <circle cx="20" cy="17" r="10" fill="#0891b2"/>
    <!-- Database Icon -->
    <ellipse cx="20" cy="14" rx="6" ry="2.5" fill="none" stroke="#ffffff" stroke-width="1.2"/>
    <path d="M14 14 V19 C14 20.5 16.7 21.5 20 21.5 C23.3 21.5 26 20.5 26 19 V14" fill="none" stroke="#ffffff" stroke-width="1.2"/>
    <text x="36" y="21" fill="#f8fafc" font-family="'Plus Jakarta Sans', sans-serif" font-size="11" font-weight="700">SQL Server</text>
  </g>

  <!-- Badge 3: FinTech Engine -->
  <g class="float-slow float-delay-2" transform="translate(640, 360)">
    <rect width="120" height="32" rx="16" fill="#0f172a" stroke="#10b981" stroke-width="1.5" opacity="0.9" filter="drop-shadow(0 8px 16px rgba(0,0,0,0.5))"/>
    <circle cx="18" cy="16" r="9" fill="#059669"/>
    <path d="M15 16 L17.5 18.5 L22 13.5" stroke="#ffffff" stroke-width="1.5" stroke-linecap="round" stroke-linejoin="round"/>
    <text x="34" y="20" fill="#f8fafc" font-family="'Plus Jakarta Sans', sans-serif" font-size="10.5" font-weight="700">FinTech Core</text>
  </g>

  <!-- WORKSTATION DESK SETUP -->
  <!-- Desk Base Shadow -->
  <ellipse cx="400" cy="465" rx="280" ry="24" fill="#020617" opacity="0.6" filter="blur(10px)"/>

  <!-- Desk Surface -->
  <g>
    <!-- Desk Legs -->
    <rect x="175" y="365" width="12" height="95" rx="4" fill="#1e293b" stroke="#334155" stroke-width="1"/>
    <rect x="171" y="456" width="20" height="6" rx="3" fill="#0f172a"/>
    <rect x="560" y="365" width="12" height="95" rx="4" fill="#1e293b" stroke="#334155" stroke-width="1"/>
    <rect x="556" y="456" width="20" height="6" rx="3" fill="#0f172a"/>

    <!-- Desk Desktop Board -->
    <rect x="140" y="350" width="460" height="18" rx="5" fill="url(#desk_wood)" stroke="#475569" stroke-width="1.5"/>
    <rect x="142" y="352" width="456" height="4" fill="#ffffff" opacity="0.12"/>
    
    <!-- Desk Pad Mat -->
    <rect x="210" y="344" width="340" height="8" rx="3" fill="#0f172a" stroke="#6366f1" stroke-width="1" stroke-opacity="0.4"/>
  </g>

  <!-- DESK ACCESSORIES -->
  <!-- Succulent Plant in Geometric Pot (Left Desk) -->
  <g transform="translate(165, 305)">
    <!-- Pot -->
    <polygon points="12,28 32,28 27,45 17,45" fill="#e2e8f0" stroke="#94a3b8" stroke-width="1"/>
    <ellipse cx="22" cy="28" rx="10" ry="2" fill="#334155"/>
    <!-- Plant Leaves -->
    <path d="M22 28 C15 22, 10 14, 18 10 C22 15, 23 23, 22 28 Z" fill="#10b981"/>
    <path d="M22 28 C26 20, 32 12, 26 8 C20 12, 21 21, 22 28 Z" fill="#059669"/>
    <path d="M22 28 C22 18, 22 8, 22 4 C24 10, 24 19, 22 28 Z" fill="#34d399"/>
  </g>

  <!-- Steaming Coffee Mug (Right Desk) -->
  <g transform="translate(525, 318)">
    <!-- Mug Body -->
    <rect x="10" y="14" width="22" height="22" rx="4" fill="#6366f1"/>
    <path d="M32 18 C36 18, 38 22, 38 25 C38 28, 36 31, 32 31" fill="none" stroke="#6366f1" stroke-width="3" stroke-linecap="round"/>
    <ellipse cx="21" cy="14" rx="11" ry="3" fill="#4338ca"/>
    <ellipse cx="21" cy="14" rx="9" ry="2" fill="#78350f"/>
    <!-- Steam animations -->
    <path class="steam-anim" d="M18 10 Q 15 5, 19 0" stroke="#e0e7ff" stroke-width="1.5" stroke-linecap="round" fill="none"/>
    <path class="steam-anim steam-del" d="M24 10 Q 27 5, 23 0" stroke="#e0e7ff" stroke-width="1.5" stroke-linecap="round" fill="none"/>
  </g>

  <!-- Mechanical Keyboard & Mouse -->
  <g transform="translate(260, 340)">
    <!-- Keyboard Base -->
    <rect x="0" y="0" width="110" height="8" rx="2" fill="#1e293b" stroke="#334155" stroke-width="1"/>
    <!-- Key Caps Row -->
    <rect x="4" y="1" width="102" height="3" rx="1" fill="#475569"/>
    <!-- Subtle RGB Underglow Strip -->
    <rect x="0" y="7" width="110" height="2" fill="url(#rgb_strip)" opacity="0.8"/>
  </g>
  <!-- Ergonomic Mouse -->
  <g transform="translate(385, 340)">
    <rect x="0" y="0" width="14" height="8" rx="4" fill="#1e293b" stroke="#6366f1" stroke-width="0.8"/>
    <line x1="7" y1="1" x2="7" y2="4" stroke="#6366f1" stroke-width="1"/>
  </g>

  <!-- DUAL MONITORS SETUP -->
  <!-- Monitor Stands -->
  <!-- Main Monitor Stand -->
  <rect x="330" y="270" width="16" height="80" rx="3" fill="#334155"/>
  <polygon points="310,350 366,350 360,344 316,344" fill="#1e293b" stroke="#475569" stroke-width="1"/>
  
  <!-- Secondary Monitor Stand -->
  <rect x="495" y="240" width="14" height="110" rx="3" fill="#334155"/>
  <polygon points="480,350 524,350 520,344 484,344" fill="#1e293b" stroke="#475569" stroke-width="1"/>

  <!-- MONITOR 1: Main Ultrawide Curved Code Screen (Visual Studio IDE) -->
  <g class="screen-glow" transform="translate(200, 150)">
    <!-- Outer Bezel -->
    <rect x="0" y="0" width="270" height="155" rx="8" fill="#090d16" stroke="#475569" stroke-width="2"/>
    <!-- Inner Screen Display -->
    <rect x="6" y="6" width="258" height="143" rx="4" fill="#0d1117"/>

    <!-- IDE Window Titlebar -->
    <rect x="6" y="6" width="258" height="16" rx="4" fill="#161b22"/>
    <circle cx="16" cy="14" r="3" fill="#ef4444"/>
    <circle cx="25" cy="14" r="3" fill="#f59e0b"/>
    <circle cx="34" cy="14" r="3" fill="#10b981"/>
    
    <!-- Tab: Solution.cs -->
    <rect x="46" y="9" width="82" height="13" rx="2" fill="#0d1117"/>
    <text x="52" y="18" fill="#38bdf8" font-family="'JetBrains Mono', monospace" font-size="7" font-weight="600">FinTechEngine.cs</text>
    <text x="136" y="18" fill="#64748b" font-family="'JetBrains Mono', monospace" font-size="7">Ledger.sql</text>

    <!-- Code Editor Content -->
    <g transform="translate(14, 30)" font-family="'JetBrains Mono', monospace" font-size="6.5">
      <!-- Line 1: namespace -->
      <text y="0"><tspan fill="#c084fc">namespace</tspan> <tspan fill="#f8fafc">Elioenai.FinTechCore</tspan></text>
      <!-- Line 2: class declaration -->
      <text y="10"><tspan fill="#60a5fa">public class</tspan> <tspan fill="#34d399">ChittyAuctionEngine</tspan></text>
      <text y="19" fill="#94a3b8">{</text>
      <!-- Line 3: async method -->
      <text y="28" x="8"><tspan fill="#60a5fa">public async</tspan> <tspan fill="#34d399">Task</tspan>&lt;<tspan fill="#34d399">AuctionResult</tspan>&gt;</text>
      <!-- Line 4: Compute method -->
      <text y="37" x="16"><tspan fill="#f59e0b">CalculateDividendAsync</tspan>(<tspan fill="#38bdf8">int</tspan> chittyId)</text>
      <text y="46" x="8" fill="#94a3b8">{</text>
      <!-- Line 5: LINQ Query -->
      <text y="55" x="16"><tspan fill="#c084fc">var</tspan> subs = <tspan fill="#c084fc">await</tspan> _db.<tspan fill="#f59e0b">ChittySubscribers</tspan></text>
      <text y="64" x="24">.<tspan fill="#f59e0b">Where</tspan>(s =&gt; s.IsActive)</text>
      <text y="73" x="24">.<tspan fill="#f59e0b">OrderByDescending</tspan>(s =&gt; s.BidAmount)</text>
      <text y="82" x="24">.<tspan fill="#f59e0b">FirstOrDefaultAsync</tspan>();</text>
      <!-- Line 6: Return statement -->
      <text y="92" x="16"><tspan fill="#c084fc">return new</tspan> <tspan fill="#34d399">AuctionResult</tspan>(subs); <tspan class="cursor-blink" fill="#38bdf8">|</tspan></text>
      <text y="101" x="8" fill="#94a3b8">}</text>
      <text y="109" fill="#94a3b8">}</text>
    </g>

    <!-- IDE Status Bar -->
    <rect x="6" y="141" width="258" height="8" fill="#1e1b4b"/>
    <text x="12" y="147" fill="#a5b4fc" font-family="'JetBrains Mono', monospace" font-size="5" font-weight="700">READY  •  .NET 8.0  •  SQL SERVER CONNECTED  •  UTF-8</text>
  </g>

  <!-- MONITOR 2: Vertical Secondary Monitor (SQL Schema & Live Analytics) -->
  <g class="screen-glow" transform="translate(480, 130)">
    <!-- Outer Bezel -->
    <rect x="0" y="0" width="105" height="175" rx="8" fill="#090d16" stroke="#475569" stroke-width="2"/>
    <!-- Inner Screen Display -->
    <rect x="5" y="5" width="95" height="165" rx="4" fill="#08101e"/>
    
    <!-- Titlebar -->
    <rect x="5" y="5" width="95" height="14" rx="4" fill="#0f172a"/>
    <circle cx="12" cy="12" r="2.5" fill="#ef4444"/>
    <circle cx="19" cy="12" r="2.5" fill="#f59e0b"/>
    <circle cx="26" cy="12" r="2.5" fill="#10b981"/>
    <text x="34" y="14" fill="#94a3b8" font-family="'JetBrains Mono', monospace" font-size="6" font-weight="700">SQL_SERVER.MDF</text>

    <!-- SQL Query Block -->
    <g transform="translate(10, 26)" font-family="'JetBrains Mono', monospace" font-size="5.5">
      <text y="0"><tspan fill="#38bdf8">SELECT</tspan> TOP 10</text>
      <text y="7">  BranchId, Balance</text>
      <text y="14"><tspan fill="#38bdf8">FROM</tspan> NBFC_Ledger</text>
      <text y="21"><tspan fill="#38bdf8">ORDER BY</tspan> Date <tspan fill="#38bdf8">DESC</tspan></text>
    </g>

    <!-- Query Execution Status -->
    <rect x="10" y="54" width="85" height="16" rx="3" fill="#064e3b" stroke="#10b981" stroke-width="0.8"/>
    <text x="16" y="65" fill="#34d399" font-family="'JetBrains Mono', monospace" font-size="6" font-weight="700">✓ QUERY 0.04ms (200)</text>

    <!-- Live Telemetry Area Chart -->
    <text x="10" y="82" fill="#64748b" font-family="'JetBrains Mono', monospace" font-size="5.5" font-weight="700">TRANSACTION LOAD</text>
    <path d="M12 118 Q 28 98, 45 106 T 70 92 T 92 88" fill="none" stroke="#06b6d4" stroke-width="1.8"/>
    <path d="M12 118 Q 28 98, 45 106 T 70 92 T 92 88 L 92 125 L 12 125 Z" fill="url(#chart_grad_small)" opacity="0.3"/>
    <line x1="12" y1="125" x2="92" y2="125" stroke="#1e293b" stroke-width="1"/>

    <!-- Mini Server Metrics Bars -->
    <g transform="translate(10, 134)">
      <text y="0" fill="#94a3b8" font-family="'JetBrains Mono', monospace" font-size="5">CPU: 22%</text>
      <rect x="36" y="-5" width="48" height="4" rx="2" fill="#1e293b"/>
      <rect x="36" y="-5" width="18" height="4" rx="2" fill="#34d399"/>

      <text y="10" fill="#94a3b8" font-family="'JetBrains Mono', monospace" font-size="5">RAM: 4.2GB</text>
      <rect x="36" y="5" width="48" height="4" rx="2" fill="#1e293b"/>
      <rect x="36" y="5" width="28" height="4" rx="2" fill="#38bdf8"/>

      <text y="20" fill="#94a3b8" font-family="'JetBrains Mono', monospace" font-size="5">I/O: NORMAL</text>
      <rect x="36" y="15" width="48" height="4" rx="2" fill="#1e293b"/>
      <rect x="36" y="15" width="40" height="4" rx="2" fill="#a855f7"/>
    </g>
  </g>

  <!-- ERGONOMIC CHAIR & DEVELOPER CHARACTER -->
  <!-- Chair Backrest -->
  <g transform="translate(325, 230)">
    <!-- High Headrest -->
    <rect x="52" y="0" width="36" height="20" rx="8" fill="#1e293b" stroke="#334155" stroke-width="1.5"/>
    <rect x="66" y="20" width="8" height="15" fill="#0f172a"/>
    <!-- Mesh Ergonomic Spine -->
    <path d="M42 35 C42 35, 38 95, 46 130 C54 135, 86 135, 94 130 C102 95, 98 35, 98 35 Z" fill="#0f172a" stroke="#475569" stroke-width="2"/>
    <!-- Lumbar Support Cushion -->
    <rect x="46" y="85" width="48" height="22" rx="6" fill="#1e293b" stroke="#6366f1" stroke-width="1" stroke-opacity="0.5"/>
  </g>

  <!-- DEVELOPER CHARACTER (Seated, Focused, Side-Rear View) -->
  <g transform="translate(340, 220)">
    <!-- Head / Hair -->
    <circle cx="62" cy="45" r="18" fill="#18181b"/>
    <!-- Ear / Face Silhouette -->
    <ellipse cx="69" cy="48" rx="14" ry="15" fill="#f5d0b5"/>
    <!-- Modern Dark Hair Cut -->
    <path d="M46 45 C46 30, 58 24, 72 26 C80 28, 83 36, 80 43 C76 38, 71 36, 62 36 C55 36, 49 40, 46 45 Z" fill="#18181b"/>
    <!-- Over-Ear Studio Headphones -->
    <rect x="54" y="38" width="8" height="18" rx="4" fill="#6366f1"/>
    <path d="M58 38 C58 22, 70 22, 70 22" fill="none" stroke="#6366f1" stroke-width="3" stroke-linecap="round"/>

    <!-- Neck -->
    <rect x="58" y="60" width="12" height="10" fill="#e2b89b"/>

    <!-- Torso / Casual Hoodie Jacket (Indigo/Navy) -->
    <path d="M42 70 C35 76, 25 90, 22 110 C22 135, 26 155, 30 165 L94 165 C98 155, 102 135, 102 110 C99 90, 89 76, 82 70 Z" fill="#312e81"/>
    <!-- Hoodie Collar -->
    <path d="M50 70 Q 62 82, 74 70" stroke="#4338ca" stroke-width="3" fill="#1e1b4b"/>
    <!-- Inner T-shirt -->
    <path d="M56 70 Q 62 76, 68 70" stroke="#f8fafc" stroke-width="2" fill="none"/>

    <!-- Left Arm & Hand on Keyboard -->
    <path d="M30 85 C20 105, 15 125, 0 130 C-8 132, -18 132, -25 130" fill="none" stroke="#3730a3" stroke-width="12" stroke-linecap="round"/>
    <ellipse cx="-28" cy="130" rx="6" ry="4" fill="#f5d0b5"/>

    <!-- Right Arm & Hand on Mouse -->
    <path d="M94 85 C102 105, 106 120, 110 128 C112 132, 116 132, 120 130" fill="none" stroke="#312e81" stroke-width="12" stroke-linecap="round"/>
    <ellipse cx="122" cy="130" rx="6" ry="4" fill="#f5d0b5"/>

    <!-- Chair Armrest & Seat -->
    <rect x="18" y="145" width="8" height="25" rx="3" fill="#334155"/>
    <rect x="10" y="140" width="24" height="6" rx="3" fill="#1e293b"/>
    <rect x="98" y="145" width="8" height="25" rx="3" fill="#334155"/>
    <rect x="90" y="140" width="24" height="6" rx="3" fill="#1e293b"/>

    <!-- Chair Base Cylinder & Swivel Legs -->
    <rect x="58" y="165" width="10" height="40" fill="#334155"/>
    <!-- Castor 5-star base -->
    <path d="M63 205 L30 220 M63 205 L96 220 M63 205 L63 226" stroke="#1e293b" stroke-width="5" stroke-linecap="round"/>
    <circle cx="28" cy="221" r="3" fill="#0f172a"/>
    <circle cx="98" cy="221" r="3" fill="#0f172a"/>
    <circle cx="63" cy="227" r="3" fill="#0f172a"/>
  </g>

  <!-- FOREGROUND ACCENT GLOWS & DEFINITIONS -->
  <defs>
    <!-- Ambient Halo Background -->
    <radialGradient id="ambient_halo" cx="0.5" cy="0.5" r="0.5">
      <stop offset="0%" stop-color="#6366f1" stop-opacity="0.35"/>
      <stop offset="50%" stop-color="#4f46e5" stop-opacity="0.12"/>
      <stop offset="100%" stop-color="#090d16" stop-opacity="0"/>
    </radialGradient>

    <!-- Cyan Halo Glow -->
    <radialGradient id="cyan_halo" cx="0.5" cy="0.5" r="0.5">
      <stop offset="0%" stop-color="#06b6d4" stop-opacity="0.3"/>
      <stop offset="60%" stop-color="#0891b2" stop-opacity="0.08"/>
      <stop offset="100%" stop-color="#090d16" stop-opacity="0"/>
    </radialGradient>

    <!-- Desk Wood Material Gradient -->
    <linearGradient id="desk_wood" x1="0" y1="0" x2="1" y2="0">
      <stop offset="0%" stop-color="#1e293b"/>
      <stop offset="25%" stop-color="#334155"/>
      <stop offset="50%" stop-color="#1e293b"/>
      <stop offset="75%" stop-color="#334155"/>
      <stop offset="100%" stop-color="#1e293b"/>
    </linearGradient>

    <!-- RGB Keyboard Strip -->
    <linearGradient id="rgb_strip" x1="0" y1="0" x2="1" y2="0">
      <stop offset="0%" stop-color="#6366f1"/>
      <stop offset="35%" stop-color="#06b6d4"/>
      <stop offset="70%" stop-color="#10b981"/>
      <stop offset="100%" stop-color="#f59e0b"/>
    </linearGradient>

    <!-- Small Chart Gradient -->
    <linearGradient id="chart_grad_small" x1="0" y1="0" x2="0" y2="1">
      <stop offset="0%" stop-color="#06b6d4" stop-opacity="0.6"/>
      <stop offset="100%" stop-color="#06b6d4" stop-opacity="0"/>
    </linearGradient>
  </defs>
</svg>
